<svg width="105" height="27" viewBox="0 0 105 27" fill="none" xmlns="http://www.w3.org/2000/svg">
<path d="M32.4 21L36.8 6.6H40.86L45.26 21H42.46L38.54 8.3H39.06L35.2 21H32.4ZM35.04 18V15.46H42.64V18H35.04ZM50.6723 26.1C50.059 26.1 49.4757 26 48.9223 25.8C48.369 25.6067 47.8723 25.3333 47.4323 24.98C46.999 24.6333 46.6457 24.2267 46.3723 23.76L48.8923 22.54C49.0657 22.86 49.3123 23.1033 49.6323 23.27C49.959 23.4367 50.3123 23.52 50.6923 23.52C51.099 23.52 51.4823 23.45 51.8423 23.31C52.2023 23.1767 52.489 22.9733 52.7023 22.7C52.9223 22.4333 53.0257 22.1 53.0123 21.7V18.56H53.3523V10.2H55.7323V21.74C55.7323 22.0067 55.719 22.2567 55.6923 22.49C55.6723 22.73 55.6323 22.9667 55.5723 23.2C55.399 23.86 55.0757 24.4033 54.6023 24.83C54.1357 25.2567 53.5623 25.5733 52.8823 25.78C52.2023 25.9933 51.4657 26.1 50.6723 26.1ZM50.4323 21.3C49.439 21.3 48.569 21.05 47.8223 20.55C47.0757 20.05 46.4923 19.37 46.0723 18.51C45.659 17.65 45.4523 16.68 45.4523 15.6C45.4523 14.5 45.6623 13.5233 46.0823 12.67C46.509 11.81 47.1057 11.1333 47.8723 10.64C48.639 10.1467 49.539 9.9 50.5723 9.9C51.599 9.9 52.4623 10.15 53.1623 10.65C53.8623 11.15 54.3923 11.83 54.7523 12.69C55.1123 13.55 55.2923 14.52 55.2923 15.6C55.2923 16.68 55.109 17.65 54.7423 18.51C54.3823 19.37 53.8423 20.05 53.1223 20.55C52.4023 21.05 51.5057 21.3 50.4323 21.3ZM50.8723 18.88C51.479 18.88 51.9623 18.7433 52.3223 18.47C52.689 18.1967 52.9523 17.8133 53.1123 17.32C53.2723 16.8267 53.3523 16.2533 53.3523 15.6C53.3523 14.9467 53.2723 14.3733 53.1123 13.88C52.9523 13.3867 52.6957 13.0033 52.3423 12.73C51.9957 12.4567 51.539 12.32 50.9723 12.32C50.3657 12.32 49.8657 12.47 49.4723 12.77C49.0857 13.0633 48.799 13.46 48.6123 13.96C48.4257 14.4533 48.3323 15 48.3323 15.6C48.3323 16.2067 48.4223 16.76 48.6023 17.26C48.7823 17.7533 49.059 18.1467 49.4323 18.44C49.8057 18.7333 50.2857 18.88 50.8723 18.88ZM62.5528 21.3C61.4461 21.3 60.4695 21.0633 59.6228 20.59C58.7828 20.11 58.1228 19.4533 57.6428 18.62C57.1695 17.78 56.9328 16.82 56.9328 15.74C56.9328 14.56 57.1661 13.5333 57.6328 12.66C58.0995 11.7867 58.7428 11.11 59.5628 10.63C60.3828 10.1433 61.3261 9.9 62.3928 9.9C63.5261 9.9 64.4895 10.1667 65.2828 10.7C66.0761 11.2333 66.6628 11.9833 67.0428 12.95C67.4228 13.9167 67.5561 15.0533 67.4428 16.36H64.7528V15.36C64.7528 14.26 64.5761 13.47 64.2228 12.99C63.8761 12.5033 63.3061 12.26 62.5128 12.26C61.5861 12.26 60.9028 12.5433 60.4628 13.11C60.0295 13.67 59.8128 14.5 59.8128 15.6C59.8128 16.6067 60.0295 17.3867 60.4628 17.94C60.9028 18.4867 61.5461 18.76 62.3928 18.76C62.9261 18.76 63.3828 18.6433 63.7628 18.41C64.1428 18.1767 64.4328 17.84 64.6328 17.4L67.3528 18.18C66.9461 19.1667 66.3028 19.9333 65.4228 20.48C64.5495 21.0267 63.5928 21.3 62.5528 21.3ZM58.9728 16.36V14.34H66.1328V16.36H58.9728ZM75.7678 21V15.9C75.7678 15.6533 75.7545 15.34 75.7278 14.96C75.7011 14.5733 75.6178 14.1867 75.4778 13.8C75.3378 13.4133 75.1078 13.09 74.7878 12.83C74.4745 12.57 74.0278 12.44 73.4478 12.44C73.2145 12.44 72.9645 12.4767 72.6978 12.55C72.4311 12.6233 72.1811 12.7667 71.9478 12.98C71.7145 13.1867 71.5211 13.4933 71.3678 13.9C71.2211 14.3067 71.1478 14.8467 71.1478 15.52L69.5878 14.78C69.5878 13.9267 69.7611 13.1267 70.1078 12.38C70.4545 11.6333 70.9745 11.03 71.6678 10.57C72.3678 10.11 73.2478 9.88 74.3078 9.88C75.1545 9.88 75.8445 10.0233 76.3778 10.31C76.9111 10.5967 77.3245 10.96 77.6178 11.4C77.9178 11.84 78.1311 12.3 78.2578 12.78C78.3845 13.2533 78.4611 13.6867 78.4878 14.08C78.5145 14.4733 78.5278 14.76 78.5278 14.94V21H75.7678ZM68.3878 21V10.2H70.8078V13.78H71.1478V21H68.3878ZM84.6873 21.3C83.5673 21.3 82.6073 21.05 81.8073 20.55C81.0073 20.05 80.394 19.37 79.9673 18.51C79.5407 17.65 79.3273 16.68 79.3273 15.6C79.3273 14.5067 79.5473 13.53 79.9873 12.67C80.434 11.81 81.0607 11.1333 81.8673 10.64C82.674 10.1467 83.6273 9.9 84.7273 9.9C86.0007 9.9 87.0673 10.2233 87.9273 10.87C88.794 11.51 89.3473 12.3867 89.5873 13.5L86.8673 14.22C86.7073 13.66 86.4273 13.2233 86.0273 12.91C85.634 12.5967 85.1873 12.44 84.6873 12.44C84.114 12.44 83.644 12.58 83.2773 12.86C82.9107 13.1333 82.6407 13.51 82.4673 13.99C82.294 14.4633 82.2073 15 82.2073 15.6C82.2073 16.54 82.414 17.3033 82.8273 17.89C83.2473 18.47 83.8673 18.76 84.6873 18.76C85.3007 18.76 85.7673 18.62 86.0873 18.34C86.4073 18.06 86.6473 17.66 86.8073 17.14L89.5873 17.72C89.2807 18.8667 88.7007 19.75 87.8473 20.37C86.994 20.99 85.9407 21.3 84.6873 21.3ZM91.5769 25.8L93.6569 20.08L93.6969 21.76L88.9969 10.2H91.8169L94.9769 18.38H94.3369L97.4769 10.2H100.197L94.0969 25.8H91.5769ZM99.4416 21V18.28H102.162V21H99.4416Z" fill="#303030"/>
<path fill-rule="evenodd" clip-rule="evenodd" d="M15.8064 2.50514C15.0814 2.26718 14.3261 2.09617 13.5477 1.99942V9.43596C13.5477 11.0992 12.1993 12.4476 10.536 12.4476V2.00061C9.75757 2.09799 9.00222 2.26965 8.27727 2.50827V9.43596C8.27727 11.0992 6.92891 12.4476 5.26562 12.4476V3.99514C2.08684 6.16389 0 9.81495 0 13.9534C0 20.6066 5.39345 26 12.0466 26C18.6997 26 24.0932 20.6066 24.0932 13.9534C24.0932 9.81082 22.0022 6.15661 18.818 3.98865V9.43596C18.818 11.0992 17.4697 12.4476 15.8064 12.4476V2.50514Z" fill="#303030"/>
</svg>
