<svg width="68" height="16" viewBox="0 0 68 16" fill="none" xmlns="http://www.w3.org/2000/svg">
<g clip-path="url(#clip0_1_215)">
<path fill-rule="evenodd" clip-rule="evenodd" d="M10.3333 0.34555C9.90367 0.214691 9.45833 0.118988 9 0.0619405V4.66676C9 5.77133 8.10413 6.66676 7 6.66676V0.0618591C6.54167 0.118907 6.09635 0.21461 5.66667 0.345632V4.66676C5.66667 5.77133 4.77083 6.66676 3.66667 6.66676V1.27394C1.46094 2.69825 0 5.17856 0 8.00009C0 12.4184 3.58073 16.0001 8 16.0001C12.4193 16.0001 16 12.4184 16 8.00009C16 5.1784 14.5391 2.69792 12.3333 1.27369V4.66676C12.3333 5.77133 11.4375 6.66676 10.3333 6.66676V0.34555Z" fill="white"/>
</g>
<g clip-path="url(#clip1_1_215)">
<path d="M19.4766 11.8857L22.4937 2.01141H25.2777L28.2948 11.8857H26.3748L23.6869 3.17713H24.0434L21.3966 11.8857H19.4766ZM21.2868 9.82857V8.08684H26.4983V9.82857H21.2868Z" fill="white"/>
<path d="M32.0013 15.3829C31.5807 15.3829 31.1807 15.3143 30.8013 15.1772C30.4218 15.0445 30.0813 14.8571 29.7796 14.6149C29.4824 14.3771 29.2401 14.0983 29.0527 13.7783L30.7807 12.9417C30.8996 13.1612 31.0687 13.328 31.2882 13.4423C31.5121 13.5565 31.7544 13.6137 32.015 13.6137C32.2938 13.6137 32.5567 13.5657 32.8036 13.4697C33.0504 13.3783 33.247 13.2389 33.3933 13.0514C33.5442 12.8686 33.615 12.64 33.6059 12.3657V10.2126H33.839V4.48001H35.471V12.3932C35.471 12.576 35.4618 12.7474 35.4436 12.9074C35.4299 13.072 35.4024 13.2343 35.3613 13.3943C35.2424 13.8469 35.0207 14.2194 34.6962 14.512C34.3761 14.8045 33.983 15.0217 33.5167 15.1635C33.0504 15.3097 32.5453 15.3829 32.0013 15.3829ZM31.8367 12.0914C31.1555 12.0914 30.559 11.92 30.047 11.5772C29.535 11.2343 29.135 10.768 28.847 10.1783C28.5635 9.58859 28.4219 8.92345 28.4219 8.18286C28.4219 7.42858 28.5659 6.75886 28.8539 6.17372C29.1464 5.58401 29.5556 5.12 30.0813 4.78172C30.607 4.44343 31.2241 4.27429 31.9327 4.27429C32.6367 4.27429 33.2287 4.44572 33.7087 4.78858C34.1887 5.13143 34.5522 5.59772 34.799 6.18744C35.0459 6.77715 35.1693 7.44229 35.1693 8.18286C35.1693 8.92345 35.0435 9.58859 34.7922 10.1783C34.5453 10.768 34.175 11.2343 33.6813 11.5772C33.1876 11.92 32.5727 12.0914 31.8367 12.0914ZM32.1384 10.432C32.5544 10.432 32.8859 10.3383 33.1327 10.1509C33.3841 9.9634 33.5647 9.70057 33.6744 9.36231C33.7842 9.02397 33.839 8.63086 33.839 8.18286C33.839 7.73486 33.7842 7.34172 33.6744 7.00344C33.5647 6.66514 33.3887 6.40229 33.1464 6.21486C32.9087 6.02743 32.5955 5.93372 32.207 5.93372C31.791 5.93372 31.4481 6.03658 31.1784 6.24229C30.9133 6.44343 30.7167 6.71544 30.5887 7.05829C30.4607 7.39658 30.3967 7.77144 30.3967 8.18286C30.3967 8.59883 30.4584 8.97831 30.5819 9.32116C30.7053 9.65943 30.895 9.92912 31.151 10.1303C31.407 10.3314 31.7361 10.432 32.1384 10.432Z" fill="white"/>
<path d="M40.1585 12.0914C39.3996 12.0914 38.7299 11.9291 38.1493 11.6046C37.5733 11.2754 37.1208 10.8251 36.7916 10.2537C36.467 9.67773 36.3047 9.01945 36.3047 8.27886C36.3047 7.46972 36.4647 6.76572 36.7848 6.16686C37.1047 5.568 37.5459 5.10401 38.1082 4.77486C38.6705 4.44115 39.3173 4.27429 40.0488 4.27429C40.8259 4.27429 41.4864 4.45714 42.0304 4.82286C42.5744 5.18858 42.9767 5.70286 43.2373 6.36572C43.4978 7.02857 43.5893 7.808 43.5115 8.70402H41.667V8.01829C41.667 7.26401 41.5459 6.72229 41.3036 6.39315C41.0659 6.05943 40.675 5.89258 40.131 5.89258C39.4956 5.89258 39.027 6.08686 38.7253 6.47544C38.4281 6.85943 38.2796 7.42858 38.2796 8.18286C38.2796 8.87312 38.4281 9.40797 38.7253 9.78745C39.027 10.1623 39.4682 10.3497 40.0488 10.3497C40.4144 10.3497 40.7276 10.2697 40.9882 10.1097C41.2488 9.94969 41.4475 9.71888 41.5847 9.41716L43.4498 9.95202C43.171 10.6285 42.7298 11.1543 42.1264 11.5292C41.5276 11.904 40.8716 12.0914 40.1585 12.0914ZM37.7036 8.70402V7.31886H42.6133V8.70402H37.7036Z" fill="white"/>
<path d="M49.2091 11.8857V8.38856C49.2091 8.21941 49.1999 8.00456 49.1816 7.74399C49.1633 7.47884 49.1062 7.2137 49.0102 6.94856C48.9142 6.68341 48.7564 6.4617 48.537 6.28342C48.3222 6.10513 48.0159 6.01599 47.6182 6.01599C47.4582 6.01599 47.2867 6.04113 47.1039 6.09142C46.9211 6.1417 46.7496 6.23998 46.5896 6.38627C46.4296 6.52798 46.2971 6.73827 46.1919 7.01713C46.0913 7.29598 46.041 7.66627 46.041 8.12799L44.9714 7.62056C44.9714 7.03541 45.0902 6.48684 45.3279 5.97484C45.5656 5.46284 45.9222 5.04913 46.3976 4.7337C46.8776 4.41827 47.481 4.26056 48.2079 4.26056C48.7885 4.26056 49.2616 4.35884 49.6273 4.55542C49.9931 4.75198 50.2765 5.00113 50.4776 5.30284C50.6833 5.60456 50.8296 5.91999 50.9164 6.24913C51.0033 6.5737 51.0559 6.87084 51.0742 7.14056C51.0925 7.41027 51.1016 7.60684 51.1016 7.73027V11.8857H49.2091ZM44.1484 11.8857V4.47999H45.8079V6.93484H46.041V11.8857H44.1484Z" fill="white"/>
<path d="M55.3161 12.0914C54.5481 12.0914 53.8898 11.92 53.3412 11.5772C52.7926 11.2343 52.372 10.768 52.0795 10.1783C51.7869 9.58859 51.6406 8.92345 51.6406 8.18286C51.6406 7.43314 51.7915 6.76343 52.0932 6.17372C52.3994 5.58401 52.8292 5.12 53.3823 4.78172C53.9354 4.44343 54.5892 4.27429 55.3435 4.27429C56.2166 4.27429 56.9481 4.496 57.5378 4.93943C58.132 5.37829 58.5115 5.97943 58.6761 6.74286L56.8109 7.23658C56.7012 6.85258 56.5092 6.55315 56.2349 6.33829C55.9651 6.12343 55.6589 6.01601 55.3161 6.01601C54.9229 6.01601 54.6006 6.11201 54.3492 6.30401C54.0977 6.49143 53.9126 6.74972 53.7938 7.07886C53.6749 7.40343 53.6155 7.77144 53.6155 8.18286C53.6155 8.82745 53.7572 9.35085 54.0406 9.75316C54.3286 10.1509 54.7538 10.3497 55.3161 10.3497C55.7366 10.3497 56.0566 10.2537 56.2761 10.0617C56.4955 9.86973 56.6601 9.59545 56.7698 9.23888L58.6761 9.63659C58.4657 10.4228 58.068 11.0286 57.4829 11.4537C56.8977 11.8789 56.1755 12.0914 55.3161 12.0914Z" fill="white"/>
<path d="M60.0582 15.1771L61.4845 11.2548L61.5119 12.4068L58.2891 4.47998H60.2228L62.3896 10.0891H61.9508L64.1039 4.47998H65.9691L61.7862 15.1771H60.0582Z" fill="white"/>
<path d="M65.4453 11.8855V10.0204H67.3105V11.8855H65.4453Z" fill="white"/>
</g>
<defs>
<clipPath id="clip0_1_215">
<rect width="16" height="16" fill="white"/>
</clipPath>
<clipPath id="clip1_1_215">
<rect width="48.6857" height="14.4" fill="white" transform="translate(19.1953 1.59998)"/>
</clipPath>
</defs>
</svg>
